<svg width="30" height="30" viewBox="0 0 30 30" fill="none" xmlns="http://www.w3.org/2000/svg">
<path d="M26.325 7.11501C25.4082 5.91047 24.1131 5.04906 22.6478 4.66916C21.1825 4.28926 19.6321 4.41292 18.2455 5.02028C17.0045 5.55583 15.8977 6.45876 15 7.657C14.1023 6.45583 12.9955 5.5529 11.7545 5.02028C10.3679 4.41292 8.81747 4.28926 7.35217 4.66916C5.88687 5.04906 4.5918 5.91047 3.675 7.11501C2.7082 8.3818 2.19727 9.96501 2.19727 11.6929C2.19727 14.1797 3.68027 16.9078 6.60469 19.8047C8.9877 22.1642 11.8037 24.0966 13.2697 25.0382C13.7863 25.3688 14.3867 25.5445 15 25.5445C15.6133 25.5445 16.2137 25.3688 16.7303 25.0382C18.1951 24.0966 21.0123 22.1642 23.3953 19.8047C26.3197 16.909 27.8027 14.1797 27.8027 11.6929C27.8027 9.96501 27.2918 8.3818 26.325 7.11501Z" fill="#D52B8C"/>
</svg>
