<?xml version="1.0" encoding="iso-8859-1"?>
<!-- Generator: Adobe Illustrator 19.0.0, SVG Export Plug-In . SVG Version: 6.00 Build 0)  -->
<svg version="1.1" id="Capa_1" xmlns="http://www.w3.org/2000/svg" xmlns:xlink="http://www.w3.org/1999/xlink" x="0px" y="0px"
	 viewBox="0 0 464 464" style="enable-background:new 0 0 464 464;" xml:space="preserve">
<g>
	<g>
		<path d="M459.733,148.396c-2.7-2.743-6.391-4.281-10.24-4.267H213.547c-5.891,0-10.667-4.776-10.667-10.667v-75.52
			c-0.014-5.822-3.558-11.054-8.96-13.227c-1.425-0.599-2.938-0.959-4.48-1.067c-3.849-0.014-7.54,1.524-10.24,4.267L4.267,221.783
			C1.556,224.417,0.019,228.03,0,231.81c0.009,3.844,1.544,7.527,4.267,10.24l174.08,174.08c4.092,4.07,10.208,5.326,15.573,3.2
			c5.402-2.172,8.946-7.404,8.96-13.227v-75.52c0-5.891,4.776-10.667,10.667-10.667h236.16c7.894,0,14.293-6.399,14.293-14.293
			V158.636C463.991,154.793,462.456,151.11,459.733,148.396z"/>
	</g>
</g>
<g>
</g>
<g>
</g>
<g>
</g>
<g>
</g>
<g>
</g>
<g>
</g>
<g>
</g>
<g>
</g>
<g>
</g>
<g>
</g>
<g>
</g>
<g>
</g>
<g>
</g>
<g>
</g>
<g>
</g>
</svg>
