<?xml version="1.0"?>
<svg xmlns="http://www.w3.org/2000/svg" xmlns:xlink="http://www.w3.org/1999/xlink" xmlns:svgjs="http://svgjs.com/svgjs" version="1.1" width="512" height="512" x="0" y="0" viewBox="0 0 512 512" style="enable-background:new 0 0 512 512" xml:space="preserve" class=""><g><g><path d="m506.658 441.862c-10.023-6.546-19.573-9.952-30.056-10.718-11.11-.813-20.733-8.05-24.514-18.438l-7.079-19.45c-1.417-3.893-5.72-5.9-9.613-4.483-3.892 1.417-5.899 5.721-4.482 9.613l7.079 19.45c5.798 15.93 20.523 27.026 37.516 28.269 5.965.436 11.438 1.988 17.141 4.918l-85.712 31.196c2.486-5.911 5.681-10.617 9.97-14.786 12.218-11.875 16.365-29.84 10.567-45.769l-30.157-82.856c1.784-.53 3.562-1.096 5.324-1.737 1.759-.64 3.49-1.339 5.198-2.083l10.43 28.657c1.108 3.045 3.984 4.937 7.049 4.937.852 0 1.718-.146 2.564-.454 3.893-1.417 5.899-5.721 4.482-9.613l-11.179-30.712c15.429-10.043 27.658-24.621 34.759-41.902 9.756-23.74 9.055-50.663-1.923-73.863l-57.224-120.953c-3.41-7.202-11.626-10.578-19.115-7.854l-119.087 43.345c-.918.334-1.783.747-2.595 1.226-.812-.479-1.678-.893-2.596-1.227l-35.901-13.067c-3.897-1.416-8.197.591-9.613 4.483-1.417 3.892.591 8.196 4.482 9.613l35.901 13.067c.167.061.259.236.214.407l-13.955 53.272c-5.969-5.732-13.105-10.22-20.972-13.066-16.152-5.848-34.078-4.303-48.945 3.797-6.207-15.752-18.967-28.438-35.111-34.314-7.81-2.843-16.112-3.98-24.319-3.436l23.576-49.83c.076-.16.257-.234.425-.174l48.471 17.642c3.896 1.416 8.197-.591 9.613-4.483 1.417-3.892-.591-8.196-4.482-9.613l-48.471-17.642c-7.486-2.724-15.705.651-19.114 7.855l-57.227 120.952c-10.977 23.2-11.677 50.123-1.921 73.863 7.101 17.28 19.33 31.858 34.758 41.901l-30.903 84.903c-3.78 10.388-13.402 17.625-24.513 18.438-10.483.767-20.034 4.173-30.057 10.718-3.76 2.455-5.776 6.749-5.263 11.206.513 4.445 3.444 8.157 7.649 9.688l98.695 35.922c1.325.482 2.69.717 4.043.717 2.942 0 5.817-1.113 8.043-3.22 3.259-3.083 4.475-7.669 3.173-11.967-3.471-11.457-8.598-20.205-16.135-27.53-7.988-7.764-10.708-19.494-6.927-29.882l30.904-84.91c3.681.448 7.38.685 11.077.685 14.655 0 29.268-3.508 42.48-10.434 22.733-11.915 39.503-32.989 46.007-57.818l26.913-102.724 26.91 102.723c4.713 17.992 14.607 33.892 28.612 45.983 3.136 2.706 7.871 2.36 10.578-.776 2.707-3.135 2.359-7.871-.775-10.578-11.698-10.099-19.964-23.388-23.905-38.43l-6.336-24.185c3.074.491 6.174.752 9.279.752 6.919 0 13.848-1.211 20.482-3.64 19.241-7.04 33.653-23.754 37.868-43.787.251-.679.4-1.383.447-2.092 3.203-15.186 13.718-27.383 28.323-32.726 8.828-3.232 18.129-3.605 27.079-1.132l25.902 54.746c9.177 19.395 9.763 41.901 1.607 61.747s-24.397 35.438-44.561 42.776c-15.023 5.47-31.07 6.12-46.404 1.883-3.998-1.103-8.124 1.239-9.228 5.231-1.103 3.993 1.239 8.124 5.231 9.227 7.985 2.207 16.129 3.306 24.264 3.306 3.713 0 7.422-.242 11.115-.7l30.89 84.872c3.781 10.387 1.063 22.117-6.927 29.881-7.536 7.325-12.663 16.073-16.135 27.531-1.302 4.298-.086 8.883 3.173 11.967 2.227 2.107 5.102 3.221 8.044 3.221 1.352 0 2.718-.235 4.042-.717l98.696-35.922c4.206-1.531 7.137-5.244 7.648-9.689.516-4.457-1.502-8.75-5.261-11.204zm-382.284-276.998c13.205 4.806 23.369 15.708 27.43 29.039-11.768 7.822-26.332 9.646-39.815 4.764-9.369-3.391-17.246-9.765-22.516-18.124l7.949-16.8c8.908-2.448 18.164-2.078 26.952 1.121zm-39.849 256.8c-5.797 15.929-1.649 33.894 10.568 45.769 4.289 4.169 7.484 8.875 9.97 14.786l-85.713-31.197c5.703-2.93 11.176-4.482 17.142-4.918 16.992-1.243 31.717-12.338 37.515-28.268l30.155-82.847c1.707.743 3.438 1.442 5.197 2.083 1.76.641 3.539 1.204 5.325 1.732zm130.055-151.148c-5.438 20.756-19.456 38.374-38.461 48.334-19.004 9.961-41.467 11.464-61.63 4.125-20.163-7.338-36.404-22.93-44.56-42.775-8.155-19.846-7.57-42.353 1.606-61.748l10.691-22.596c6.592 7.587 15.032 13.431 24.655 16.914 19.265 6.974 41.049 3.435 57.155-9.202.629-.359 1.196-.803 1.688-1.316 12.215-9.574 28.111-12.158 42.731-6.864 8.842 3.199 16.206 8.891 21.472 16.538zm101.11-41.159c-9.357 3.425-19.488 3.605-28.898.589l-4.71-17.978c5.251-7.601 12.58-13.268 21.369-16.467 13.203-4.807 27.998-2.988 39.677 4.614-3.985 13.555-13.97 24.314-27.438 29.242zm66.637-78.605c-16.134 5.903-28.873 18.609-35.054 34.37-14.88-8.077-32.809-9.594-48.952-3.717-7.807 2.842-14.904 7.296-20.843 12.984l-13.965-53.309c-.045-.172.047-.348.214-.408l119.087-43.344c.167-.06.35.015.426.174l23.55 49.775c-8.257-.554-16.608.599-24.463 3.475z" fill="#ffffff" data-original="#000000" class=""/><path d="m485.728 244.853c-.008 0-.015 0-.023 0-4.131 0-7.486 3.343-7.499 7.478-.013 4.142 3.335 7.51 7.478 7.522l10.569.032h.022c4.132 0 7.487-3.343 7.5-7.478.013-4.142-3.335-7.51-7.478-7.522z" fill="#ffffff" data-original="#000000" class=""/><path d="m481.209 233.438c1.312 0 2.641-.344 3.847-1.067l9.168-5.491c3.554-2.128 4.709-6.734 2.581-10.288-2.13-3.554-6.736-4.708-10.288-2.58l-9.168 5.491c-3.554 2.128-4.709 6.734-2.581 10.288 1.406 2.347 3.891 3.647 6.441 3.647z" fill="#ffffff" data-original="#000000" class=""/><path d="m477.166 285.154 9.138 5.546c1.217.738 2.559 1.09 3.885 1.09 2.534 0 5.007-1.285 6.418-3.609 2.149-3.541 1.021-8.154-2.52-10.303l-9.138-5.547c-3.542-2.149-8.153-1.021-10.303 2.52s-1.021 8.154 2.52 10.303z" fill="#ffffff" data-original="#000000" class=""/><path d="m15.722 259.898h.036l10.569-.049c4.142-.02 7.484-3.393 7.465-7.535-.021-4.142-3.347-7.501-7.535-7.465l-10.569.049c-4.142.02-7.484 3.393-7.465 7.535.019 4.13 3.373 7.465 7.499 7.465z" fill="#ffffff" data-original="#000000" class=""/><path d="m17.731 226.89 9.178 5.476c1.204.718 2.528 1.06 3.836 1.06 2.554 0 5.044-1.306 6.447-3.658 2.123-3.557.959-8.161-2.598-10.284l-9.178-5.476c-3.557-2.122-8.162-.96-10.283 2.598-2.122 3.557-.958 8.161 2.598 10.284z" fill="#ffffff" data-original="#000000" class=""/><path d="m27.083 272.325-9.129 5.562c-3.537 2.155-4.657 6.77-2.503 10.307 1.413 2.319 3.882 3.599 6.412 3.599 1.33 0 2.677-.354 3.896-1.096l9.129-5.562c3.537-2.155 4.657-6.77 2.503-10.307-2.156-3.537-6.77-4.658-10.308-2.503z" fill="#ffffff" data-original="#000000" class=""/><path d="m246.282 105.268c2.705 2.696 6.253 4.043 9.8 4.043 3.563 0 7.126-1.359 9.834-4.076l36.199-36.32c12.851-12.895 12.816-33.842-.078-46.694h-.001c-12.69-12.647-33.18-12.813-46.077-.524-12.938-12.248-33.427-12.011-46.076.679-12.852 12.895-12.816 33.842.079 46.693zm-25.773-72.304c3.397-3.409 7.918-5.291 12.73-5.299h.031c4.801 0 9.316 1.866 12.718 5.256l4.693 4.678c2.934 2.924 7.682 2.917 10.607-.018l4.677-4.693c7.016-7.037 18.445-7.055 25.482-.042h-.001c7.037 7.014 7.057 18.444.043 25.481l-35.41 35.529-35.529-35.411c-3.409-3.397-5.291-7.919-5.299-12.731s1.859-9.341 5.258-12.75z" fill="#ffffff" data-original="#000000" class=""/></g></g></svg>
