<svg width="51" height="51" viewBox="0 0 51 51" fill="none" xmlns="http://www.w3.org/2000/svg">
<g clip-path="url(#clip0_1193_557)">
<path d="M22.0092 23.7616V4.58527C22.0092 2.46905 23.7413 0.75 25.8736 0.75C28.0058 0.75 29.7379 2.46905 29.7379 4.58527V23.7616C29.7379 25.8778 28.0058 27.5969 25.8736 27.5969C23.7413 27.5969 22.0092 25.8778 22.0092 23.7616ZM41.1913 6.37356C39.9394 5.3898 38.113 5.6057 37.1217 6.85017C36.1305 8.09669 36.346 9.90535 37.602 10.8912C42.1989 14.4902 44.834 19.8795 44.834 25.6803C44.834 36.0556 36.3275 44.4981 25.8756 44.4981C15.4216 44.4981 6.91518 36.0556 6.91518 25.6803C6.91518 19.8815 9.54818 14.4942 14.141 10.8973C15.397 9.9135 15.6125 8.10483 14.6213 6.85628C13.63 5.60977 11.8097 5.39794 10.5497 6.37968C4.55514 11.0745 1.11768 18.1095 1.11768 25.6803C1.11768 39.229 12.2243 50.25 25.8736 50.25C39.5228 50.25 50.6294 39.2269 50.6294 25.6803C50.6294 18.1054 47.1879 11.0704 41.1913 6.37356Z" fill="black"/>
</g>
<defs>
<clipPath id="clip0_1193_557">
<rect width="49.875" height="49.5" fill="white" transform="translate(0.935059 0.75)"/>
</clipPath>
</defs>
</svg>
