<?xml version="1.0" encoding="iso-8859-1"?>
<!-- Generator: Adobe Illustrator 19.0.0, SVG Export Plug-In . SVG Version: 6.00 Build 0)  -->
<svg version="1.1" id="Capa_1" xmlns="http://www.w3.org/2000/svg" xmlns:xlink="http://www.w3.org/1999/xlink" x="0px" y="0px"
	 viewBox="0 0 512 512" style="enable-background:new 0 0 512 512;" xml:space="preserve">
<g>
	<g>
		<path d="M310.741,218.174C314.841,210.388,331,194.696,331,165c0-60.515-56.484-71.893-59.487-74.019
			c-0.209-2.199-0.745-7.857-0.908-9.582C266.181,34.993,227.655,0,181,0c-46.157,0-84.565,35.01-89.341,81.431l-0.981,9.521
			C87.678,93.065,30,104.249,30,165c0,29.661,16.17,45.41,20.259,53.174C47.38,221.193,0,245.308,0,301c0,49.629,41.371,89,91,89
			h180c49.629,0,90-40.371,90-90C361,243.979,314.16,221.761,310.741,218.174z"/>
	</g>
</g>
<g>
	<g>
		<path d="M461.741,218.174C465.841,210.388,482,194.696,482,165c0-60.515-57.484-71.893-60.487-74.019
			c-0.209-2.199-0.745-7.857-0.908-9.582C416.181,34.993,377.655,0,331,0c-20.255,0-38.795,7.031-53.879,18.523
			c11.017,14.848,19.006,32.172,22.224,51.438C352.68,95.288,361,139.482,361,165c0,19.248-4.995,34.497-10.591,45.894
			C377.655,235.503,391,265.181,391,300c0,36.01-16.273,67.987-41.472,90H421c49.629,0,91-40.371,91-90
			C512,243.979,465.16,221.761,461.741,218.174z"/>
	</g>
</g>
<g>
	<g>
		<polygon points="391,482 391,420 331,420 331,482 211,482 211,420 151,420 151,482 91,482 91,512 451,512 451,482 		"/>
	</g>
</g>
<g>
</g>
<g>
</g>
<g>
</g>
<g>
</g>
<g>
</g>
<g>
</g>
<g>
</g>
<g>
</g>
<g>
</g>
<g>
</g>
<g>
</g>
<g>
</g>
<g>
</g>
<g>
</g>
<g>
</g>
</svg>
