<svg id="Layer_1" enable-background="new 0 0 512 512" height="512" viewBox="0 0 512 512" width="512" xmlns="http://www.w3.org/2000/svg"><g><g><path d="m74.803 64.197c-2.929-2.929-7.678-2.929-10.606 0-2.929 2.929-2.929 7.678 0 10.606l3.885 3.885c1.464 1.464 3.384 2.197 5.303 2.197s3.839-.732 5.303-2.197c2.929-2.929 2.929-7.678 0-10.606z"/><path d="m437.197 447.804c1.464 1.464 3.384 2.196 5.303 2.196s3.839-.732 5.304-2.197c2.929-2.929 2.929-7.678-.001-10.606l-3.886-3.885c-2.928-2.929-7.677-2.929-10.606.001-2.929 2.929-2.929 7.678.001 10.606z"/><path d="m438.614 80.885c1.919 0 3.839-.732 5.303-2.196l3.886-3.885c2.93-2.929 2.93-7.678.001-10.606-2.929-2.929-7.678-2.93-10.606-.001l-3.886 3.885c-2.93 2.929-2.93 7.678-.001 10.606 1.464 1.465 3.383 2.197 5.303 2.197z"/><path d="m68.082 433.312-3.885 3.885c-2.929 2.929-2.929 7.678 0 10.606 1.464 1.465 3.384 2.197 5.303 2.197s3.839-.732 5.303-2.197l3.885-3.885c2.929-2.929 2.929-7.678 0-10.606-2.928-2.929-7.677-2.929-10.606 0z"/><path d="m375.846 497h-294.346c-36.668 0-66.5-29.832-66.5-66.5v-349c0-36.668 29.832-66.5 66.5-66.5h84.6c4.142 0 7.5-3.358 7.5-7.5s-3.358-7.5-7.5-7.5h-84.6c-44.939 0-81.5 36.561-81.5 81.5v349c0 44.939 36.561 81.5 81.5 81.5h294.346c4.143 0 7.5-3.358 7.5-7.5s-3.358-7.5-7.5-7.5z"/><path d="m430.5 0h-229.795c-4.142 0-7.5 3.358-7.5 7.5s3.358 7.5 7.5 7.5h229.795c36.668 0 66.5 29.832 66.5 66.5v349c0 36.668-29.832 66.5-66.5 66.5h-19.656c-4.143 0-7.5 3.358-7.5 7.5s3.357 7.5 7.5 7.5h19.656c44.939 0 81.5-36.561 81.5-81.5v-349c0-44.939-36.561-81.5-81.5-81.5z"/><path d="m30 81.5v349c0 28.397 23.103 51.5 51.5 51.5h349c28.397 0 51.5-23.103 51.5-51.5v-349c0-28.397-23.103-51.5-51.5-51.5h-349c-28.397 0-51.5 23.103-51.5 51.5zm437 0v349c0 20.126-16.374 36.5-36.5 36.5h-349c-20.126 0-36.5-16.374-36.5-36.5v-349c0-20.126 16.374-36.5 36.5-36.5h349c20.126 0 36.5 16.374 36.5 36.5z"/><path d="m138.447 369.413c15.164 0 27.5-12.336 27.5-27.5v-72.591c13.187-.068 28.166-.134 36.566-.134 24.629 0 47.974-9.523 65.733-26.814 18.036-17.562 27.969-40.864 27.969-65.616s-9.933-48.055-27.969-65.616c-17.76-17.292-41.104-26.814-65.733-26.814h-64.066c-7.256 0-14.354 2.947-19.477 8.086-4.624 4.639-7.437 10.801-7.928 17.362-.064.683-.095 1.355-.095 2.052v181.322c0 4.142 3.358 7.5 7.5 7.5s7.5-3.358 7.5-7.5v-181.323c0-.243.01-.455.033-.688.006-.066.012-.132.017-.199.214-3.006 1.492-5.826 3.598-7.938 2.362-2.37 5.506-3.675 8.853-3.675h64.066c20.698 0 40.326 8.013 55.269 22.562 15.111 14.713 23.434 34.2 23.434 54.869s-8.322 40.155-23.434 54.869c-14.942 14.549-34.57 22.562-55.269 22.562-10.074 0-29.546.095-44.107.174-4.126.022-7.459 3.374-7.459 7.5v80.051c0 6.893-5.607 12.5-12.5 12.5s-12.5-5.607-12.5-12.5v-13.944c0-4.142-3.358-7.5-7.5-7.5s-7.5 3.358-7.5 7.5v13.943c-.001 15.163 12.335 27.5 27.499 27.5z"/><path d="m153.505 227.19c1.405 1.39 3.3 2.168 5.275 2.168h.041c14.407-.078 33.682-.171 43.692-.171 29.109 0 53.702-24.01 53.702-52.43s-24.593-52.431-53.702-52.431h-44.006c-1.993 0-3.904.793-5.311 2.205-1.407 1.411-2.195 3.324-2.189 5.317.045 15.716.1 36.31.1 44.909 0 10.3.094 30.233.173 45.142.011 1.989.811 3.893 2.225 5.291zm49.008-87.863c20.979 0 38.702 17.141 38.702 37.431 0 20.289-17.724 37.43-38.702 37.43-8.381 0-23.21.065-36.272.132-.068-13.534-.134-28.944-.134-37.562 0-7.288-.039-23.181-.078-37.431z"/><path d="m272.459 304.385-8.231 38.084h-9.828c-9.164 0-16.619 7.455-16.619 16.619v29.761c0 8.105 5.835 14.864 13.523 16.32v9.959c0 9.01 7.33 16.341 16.341 16.341h14.318c9.011 0 16.341-7.331 16.341-16.341v-9.659h49.953v9.659c0 9.01 7.33 16.341 16.341 16.341h12.318c9.011 0 16.341-7.331 16.341-16.341v-9.959c7.688-1.456 13.523-8.214 13.523-16.32v-29.761c0-9.164-7.455-16.619-16.619-16.619h-9.828l-8.231-38.084c-.746-3.452-3.8-5.916-7.331-5.916h-84.98c-3.532.001-6.586 2.465-7.332 5.916zm10.845 110.744c0 .739-.602 1.341-1.341 1.341h-14.318c-.739 0-1.341-.602-1.341-1.341v-9.659h17zm94.953 0c0 .739-.602 1.341-1.341 1.341h-12.318c-.739 0-1.341-.602-1.341-1.341v-9.659h15zm13.523-56.04v29.761c0 .893-.727 1.62-1.619 1.62h-135.762c-.893 0-1.619-.727-1.619-1.62v-29.761c0-.893.727-1.619 1.619-1.619h135.762c.893 0 1.619.726 1.619 1.619zm-33.061-45.619 6.268 29h-85.412l6.268-29z"/><path d="m282.022 366.47h-13.308c-4.143 0-7.5 3.358-7.5 7.5s3.357 7.5 7.5 7.5h13.308c4.143 0 7.5-3.358 7.5-7.5s-3.357-7.5-7.5-7.5z"/><path d="m355.037 373.97c0 4.142 3.357 7.5 7.5 7.5h13.309c4.143 0 7.5-3.358 7.5-7.5s-3.357-7.5-7.5-7.5h-13.309c-4.142 0-7.5 3.358-7.5 7.5z"/></g></g></svg>