<?xml version="1.0" encoding="iso-8859-1"?>
<!-- Generator: Adobe Illustrator 19.0.0, SVG Export Plug-In . SVG Version: 6.00 Build 0)  -->
<svg version="1.1" id="Layer_1" xmlns="http://www.w3.org/2000/svg" xmlns:xlink="http://www.w3.org/1999/xlink" x="0px" y="0px"
	 viewBox="0 0 512 512" style="enable-background:new 0 0 512 512;" xml:space="preserve">
<g>
	<g>
		<path d="M449.265,298.503v-18.72h55.146c4.191,0,7.589-3.398,7.589-7.589v-35.922c0-4.191-3.398-7.589-7.589-7.589h-74.448
			l3.762-31.231c0.001-0.005,0.001-0.011,0.002-0.016l3.078-25.553c0.259-2.155-0.416-4.319-1.857-5.943
			c-1.44-1.624-3.507-2.554-5.678-2.554h-53.104c-2.172,0-4.238,0.93-5.678,2.554c-1.441,1.624-2.116,3.788-1.857,5.943
			l6.843,56.802h-52.308V124.352c0-14.339-8.467-27.193-21.184-33.036V70.998c2.758-1.136,4.699-3.851,4.699-7.02V41.48
			c0-4.191-3.398-7.589-7.589-7.589h-29.903c-4.191,0-7.589,3.398-7.589,7.589v22.498c0,3.168,1.941,5.882,4.699,7.02v20.318
			c-12.717,5.845-21.183,18.699-21.183,33.036v104.33H187.28l20.169-24.56c1.863-2.268,2.25-5.407,0.996-8.06
			c-0.779-1.649-2.108-2.925-3.706-3.657c4.832-11.839,2.862-25.931-6.243-36.062c-12.687-14.115-34.491-15.278-48.608-2.592
			c-0.097,0.087-0.186,0.179-0.282,0.266c-1.287-2.094-2.8-4.068-4.543-5.882c-6.371-6.628-14.942-10.379-24.134-10.561
			c-19.018-0.366-34.718,14.755-35.095,33.73c-0.147,7.393,2.034,14.474,6.206,20.412h-1.494c-2.935,0-5.607,1.692-6.861,4.345
			c-1.255,2.653-0.866,5.792,0.996,8.06l20.169,24.56h-6.347c-4.191,0-7.589,3.398-7.589,7.589s3.398,7.589,7.589,7.589h22.399
			h50.323h81.479h62.871h68.456h37.37h75.418v20.744h-55.146H51.589h-35.42v-20.744h7.53c4.191,0,7.589-3.398,7.589-7.589
			s-3.398-7.589-7.589-7.589H8.58c-4.191,0-7.589,3.398-7.589,7.589v35.922c0,4.191,3.398,7.589,7.589,7.589h35.42v18.72
			c0,4.191,3.398,7.589,7.589,7.589h38.066l-13.292,47.572H7.589c-4.191,0-7.589,3.398-7.589,7.589v28.66
			c0,4.191,3.398,7.589,7.589,7.589h56.523L44.28,468.478c-0.638,2.286-0.171,4.74,1.264,6.63c1.435,1.891,3.672,3.001,6.046,3.001
			h29.851c3.405,0,6.393-2.268,7.309-5.546l20.974-75.062h273.82l20.974,75.062c0.916,3.279,3.904,5.546,7.309,5.546h29.851
			c2.374,0,4.61-1.111,6.046-3.001c1.435-1.89,1.902-4.344,1.264-6.63l-19.832-70.977h73.981c4.191,0,7.589-3.398,7.589-7.589
			v-28.66c0-4.191-3.398-7.589-7.589-7.589h-86.231l-13.292-47.572h38.064v0.002C445.867,306.092,449.265,302.694,449.265,298.503z
			 M154.106,175.336c0.239-0.59,0.412-1.213,0.494-1.867c1.005-3.141,2.809-6.069,5.434-8.429c7.892-7.09,20.08-6.441,27.173,1.449
			c6.482,7.213,6.476,18.008,0.403,25.228h-29.426C154.239,187.026,152.913,180.959,154.106,175.336z M101.011,171.607
			c0.21-10.608,9.023-19.063,19.619-18.856c5.138,0.102,9.93,2.199,13.491,5.903c3.309,3.443,5.165,7.894,5.334,12.629
			c-1.614,6.732-1.187,13.877,1.329,20.434h-18.39c-0.788-0.297-1.636-0.476-2.526-0.493c-5.138-0.102-9.93-2.199-13.491-5.903
			C102.815,181.616,100.91,176.745,101.011,171.607z M167.637,228.682h-43.145L106.6,206.896h78.93L167.637,228.682z
			 M307.987,228.681h-47.692v-86.032c6.032-1.062,14.739-1.72,20.834,0.915c4.397,1.901,9.147,2.597,13.746,2.597
			c4.719,0,9.264-0.736,13.112-1.648V228.681z M307.989,128.787c-5.884,1.782-14.791,3.461-20.834,0.847
			c-8.886-3.844-19.358-3.463-26.858-2.38v-2.901c-0.002-9.524,6.409-17.923,15.588-20.425c3.303-0.9,5.594-3.9,5.594-7.322V63.979
			c0-3.168-1.941-5.882-4.699-7.02v-7.889h14.724v7.889c-2.758,1.136-4.699,3.851-4.699,7.02v32.628
			c0,3.422,2.291,6.423,5.594,7.322c9.179,2.502,15.59,10.901,15.59,20.424V128.787z M414.673,228.681h-23.91v0.001l-2.906-24.126
			c3.469-0.819,8.701-1.118,14.44,1.833c4.81,2.474,9.138,3.451,12.941,3.45c0.585,0,1.155-0.025,1.714-0.07L414.673,228.681z
			 M420.711,178.561l-1.782,14.792c-1.241,1.052-4.14,2.393-9.691-0.463c-8.874-4.564-17.107-4.593-23.201-3.434l-1.312-10.895
			L420.711,178.561L420.711,178.561z M15.178,382.326v-13.482H72.12l-3.767,13.482H15.178z M75.681,462.934H61.589l43.824-156.841
			h14.092L75.681,462.934z M113.964,382.326l3.767-13.482h34.546c4.191,0,7.589-3.398,7.589-7.589s-3.398-7.589-7.589-7.589h-30.305
			l13.292-47.572h222.736l13.292,47.572H223.023c-4.191,0-7.589,3.398-7.589,7.589s3.398,7.589,7.589,7.589h152.511l3.767,13.482
			H113.964z M495.545,368.843v13.482h-70.634l-3.767-13.482H495.545z M431.676,462.934h-14.091l-43.824-156.841h14.091
			L431.676,462.934z M434.087,290.914h-40.476H363.76H129.505H99.654H59.178v-11.131h374.909V290.914z"/>
	</g>
</g>
<g>
</g>
<g>
</g>
<g>
</g>
<g>
</g>
<g>
</g>
<g>
</g>
<g>
</g>
<g>
</g>
<g>
</g>
<g>
</g>
<g>
</g>
<g>
</g>
<g>
</g>
<g>
</g>
<g>
</g>
</svg>
