<svg width="25" height="25" viewBox="0 0 25 25" fill="none" xmlns="http://www.w3.org/2000/svg">
<g clip-path="url(#clip0_324_1446)">
<path d="M0.458362 8.64448L5.66253 13.8487C6.26878 14.4549 7.25159 14.4549 7.85784 13.8487C8.46409 13.2419 8.46409 12.2591 7.85784 11.6528L6.27607 10.071C16.8933 9.54969 23.7969 16.6752 23.8604 23.9794C23.8625 24.2434 24.2334 24.2971 24.3157 24.0544C26.8792 16.4612 22.2167 6.92417 10.0308 5.19969C8.85055 5.04605 7.6568 4.92938 6.45367 4.845L7.85836 3.44032C8.46461 2.83407 8.46461 1.85073 7.85836 1.245C7.25211 0.638755 6.2693 0.638234 5.66305 1.245L0.458882 6.44917C-0.147889 7.05542 -0.147888 8.03823 0.458362 8.64448V8.64448Z" fill="#D52B8C"/>
</g>
<defs>
<clipPath id="clip0_324_1446">
<rect width="25" height="25" fill="white" transform="translate(25 25) rotate(-180)"/>
</clipPath>
</defs>
</svg>
