<svg width="25" height="25" viewBox="0 0 25 25" fill="none" xmlns="http://www.w3.org/2000/svg">
<g clip-path="url(#clip0_324_1448)">
<path d="M19.8242 16.2109C18.3769 16.2109 17.1015 16.9229 16.3004 18.0056L9.37451 14.4592C9.4895 14.0672 9.57031 13.661 9.57031 13.2324C9.57031 12.6511 9.45112 12.0984 9.24521 11.59L16.4935 7.22832C17.3001 8.175 18.4858 8.78906 19.8242 8.78906C22.2475 8.78906 24.2188 6.81782 24.2188 4.39453C24.2188 1.97124 22.2475 0 19.8242 0C17.4009 0 15.4297 1.97124 15.4297 4.39453C15.4297 4.95298 15.5447 5.48271 15.7354 5.97451L8.46558 10.349C7.65962 9.43047 6.49106 8.83789 5.17578 8.83789C2.75249 8.83789 0.78125 10.8091 0.78125 13.2324C0.78125 15.6557 2.75249 17.627 5.17578 17.627C6.64697 17.627 7.9439 16.8941 8.74194 15.781L15.6451 19.3159C15.5179 19.7263 15.4297 20.1538 15.4297 20.6055C15.4297 23.0288 17.4009 25 19.8242 25C22.2475 25 24.2188 23.0288 24.2188 20.6055C24.2188 18.1822 22.2475 16.2109 19.8242 16.2109Z" fill="#D52B8C"/>
</g>
<defs>
<clipPath id="clip0_324_1448">
<rect width="25" height="25" fill="white"/>
</clipPath>
</defs>
</svg>
