<svg width="512" height="512" viewBox="0 0 512 512" fill="none" xmlns="http://www.w3.org/2000/svg">
<g clip-path="url(#clip0_1000_6424)">
<g clip-path="url(#clip1_1000_6424)">
<path d="M458.51 287.82C458.51 287.82 482.378 295.04 482.632 263.916C482.644 262.617 481.549 261.679 480.165 261.781C473.504 262.276 455.733 265.662 458.51 287.82V287.82Z" fill="black"/>
<path d="M461.129 291.203C461.129 291.203 476.602 271.648 447.741 259.993C446.537 259.505 445.263 260.18 444.85 261.505C442.867 267.883 439.497 285.657 461.129 291.203V291.203Z" fill="black"/>
<path d="M453.18 287.16C453.18 287.16 462.28 310.376 486.885 291.313C487.913 290.518 487.972 289.078 487.034 288.054C482.523 283.128 468.866 271.265 453.18 287.16V287.16Z" fill="black"/>
<path d="M459.5 289C459.5 289 457.466 287.466 453 283C447.5 277.5 437.5 298.901 431 293.401C429.993 294.591 420.115 314.743 419 316C417.885 317.257 417.158 317.772 416 319C414.961 320.1 415 320 415 320L413.63 321.5C408.78 326.26 408.254 326.798 403 331C397.734 335.192 392.624 341.638 387 345C381.364 348.325 364.141 291.258 358.345 293.401L353.993 294.876L347.914 296.988C343.789 298.529 339.641 300.197 335.535 302.221C327.34 306.216 319.05 311.33 312.038 318.171C310.31 319.887 308.564 321.614 307.064 323.507C305.457 325.338 304.095 327.284 302.724 329.247C300.121 333.171 297.885 337.279 296.255 341.318C292.81 349.465 311.442 356.849 310.182 364C309.051 371.094 320.15 375.543 319.182 381.5C318.212 387.441 326.18 406.212 324.5 411C323.634 413.372 306.133 426.406 305 428.5C304.723 429.026 288.808 436.491 288.5 437L279 442L272 446C271.853 446.25 247.653 460.286 247.5 460.5L243.682 462C243.404 462.451 241.91 462 244.682 459C244.355 459.354 253.816 447.675 253.5 448C252.803 448.601 255.219 446.491 254.5 447C251.5 443 253 443.5 251.5 441C250.093 438.656 251.627 441.217 250.719 439.5C248.494 440.262 237.619 453.716 235 455C209.5 467.5 194.758 465.827 187.5 467C187.5 462.5 202 460.015 198.5 456.5C190.232 457.985 199.999 456.5 190.999 456.5C182.333 458.871 176.981 461.466 168.5 465L162 468.5C145.868 477.789 151.044 474.48 149 475.5C146.924 476.504 144.012 477.425 142 478.5C140.989 479.06 139.552 479.866 138.5 480.5L134.5 482.5C129.875 485.303 127.5 485.925 122.5 487.986C117.5 490.046 121.5 488.5 116.5 491C115.834 491.333 114.443 492.015 114.5 492C113.443 492.515 114.5 492 113.5 492.5C112.5 493 113.545 492.5 112.5 493C110.727 493.848 110.524 493.981 110.5 494C109.375 494.475 110.287 494.01 109.057 494.652C108.213 495.093 108.917 494.791 108.5 495C107.5 495.5 108.5 495 107.5 495.5C107 496 81.2169 513.485 80.7169 513.985C81.2169 514.485 81.2169 514.985 80.7169 513.985C80.7169 513.985 87.877 513.985 98.7169 513.985C100.217 513.985 101.717 513.985 105.217 513.985C109.332 513.985 107.217 514 108.717 513.985C109.133 513.981 111.217 514 111.717 514C112.474 514 113.217 513.985 114.217 514C118.062 514.057 112.5 513.997 119.217 514L121.557 513.985C139.557 515.485 149.056 516.485 167.068 517.5C167.199 517.387 167.33 517.283 167.451 517.18C169.556 515.257 172 503 173 499.768C176.5 495.5 175 498.5 176.5 494.652L177 493.5L177.5 493C178.761 492.279 179.694 491.167 181 490.5C182.294 489.815 183.715 489.212 185 488.5L187.5 488C192.771 485.321 197.499 485.5 203.999 484C217.999 482.5 234.182 480.354 249 472.5C259.963 466.689 269.5 460.5 279 456.5C283.449 454.88 286.814 453.283 291.5 451C296.227 448.608 295.318 448 301 445C310.031 438.442 314.805 436.77 322.5 431L324.5 429.5C324.763 428.976 325.758 428.017 326 427.5L327.872 425L329.211 423.455C329.64 422.441 333.523 418.015 333.902 417C335.458 412.935 332.988 412.301 333.902 408.311C335.647 400.34 336.177 392.767 336.43 385.747C336.651 378.739 336.541 372.303 336.721 366.425C336.885 360.632 337.284 355.368 338.439 350.983C339.512 346.502 341.301 342.859 343.998 339.289C346.65 335.717 350.643 332.33 355.53 329.158C357.944 327.564 360.663 326.08 363.48 324.631L375.567 377.5L391.871 356.5C400 347 396.556 350.046 403 345C409.409 339.905 415.567 336.552 420.867 331C431.316 319.818 410.787 339.289 424 327.5C426.5 320 429.999 319.1 428 317.5C426.499 313.6 425.232 322.08 425 321.5C424.63 320.569 427.688 321.294 426.5 321C424.65 320.535 460.326 287.476 459.5 289Z" fill="black"/>
<path d="M190.999 459C190.999 459 179.824 421.955 220.532 418.91C222.968 418.083 223.371 417.95 224.532 420C230.117 429.852 228.532 457 190.999 459Z" fill="black"/>
<path d="M240.084 377.5C240.084 377.5 221.584 399.287 254.959 424C257.395 424.827 260.365 433.05 261.526 431C267.111 421.148 270.084 388.005 240.084 377.5Z" fill="black"/>
<path d="M261.526 431C261.526 431 264.884 460 294.566 457.5C297.002 458.327 296.978 456.55 298.139 454.5C303.724 444.648 289.344 428 261.526 431Z" fill="black"/>
<path d="M261.526 431C261.526 431 252.759 393 294.014 392.747C297.759 392.747 295.759 392.747 299.259 394C305.759 409 296.218 435.986 261.526 431Z" fill="black"/>
<path d="M329.639 354.568C327.829 351.246 326.791 347.908 326.08 344.551C325.778 342.874 325.56 341.191 325.494 339.507C325.49 337.826 325.588 336.139 325.854 334.452C326.17 332.766 326.329 331.063 326.84 329.36C327.381 327.657 328.493 325.974 330.279 324.354C332.086 322.735 334.453 321.162 337.469 319.718C340.502 318.283 344.216 316.943 348.928 316.041L349.915 316.305C348.171 317.923 346.812 319.445 345.636 320.982C344.457 322.517 343.434 324.044 342.469 325.587C341.541 327.133 340.456 328.666 339.172 330.208C337.921 331.752 336.708 333.321 335.914 334.919C335.103 336.519 334.448 338.134 333.889 339.756C333.268 341.378 332.792 343.011 332.403 344.649C331.562 347.926 331.086 351.233 330.897 354.55L329.639 354.568Z" fill="black"/>
<path d="M257.312 423.589C258.799 426.346 259.577 429.106 260.061 431.872C260.253 433.254 260.371 434.638 260.346 436.021C260.268 437.403 259.796 438.704 259.471 440.085C259.101 441.464 258.61 442.4 258.06 443.79C256.56 445.306 255.82 447.446 254.113 448.75C252.391 450.049 251.29 450.938 248.472 452.079C245.638 453.208 242.193 454.248 237.857 454.914L236.968 454.681C238.639 453.381 239.948 452.153 241.098 450.907C242.247 449.668 243.251 448.43 244.205 447.179C245.126 445.924 246.187 444.682 247.434 443.438C248.648 442.19 249.829 440.921 250.632 439.621C251.449 438.322 252.124 437.006 252.71 435.683C253.357 434.362 253.87 433.028 254.308 431.688C255.231 429.012 255.827 426.305 256.162 423.583L257.312 423.589Z" fill="black"/>
<path d="M431.646 299.534C431.646 299.534 434.81 274.822 406.756 292.053C405.585 292.771 404.894 294.245 405.18 295.386C406.556 300.875 412.086 314.361 431.646 299.534Z" fill="black"/>
<path d="M437.407 309.707C437.407 309.707 417.902 320.369 433.76 338.229C434.418 339.09 435.621 339.127 436.482 338.324C440.621 334.468 450.604 322.818 437.407 309.707Z" fill="black"/>
<path d="M434.314 314.566C434.314 314.566 434.033 299.847 458.175 302.056C459.362 302.489 460.127 303.746 459.916 304.898C458.904 310.434 454.317 324.502 434.314 314.566Z" fill="black"/>
<path d="M442.713 317.703C442.713 317.703 439.05 335.879 461.366 326.471C462.297 326.079 462.9 325.059 462.738 324.164C461.963 319.865 458.413 309.029 442.713 317.703Z" fill="black"/>
<path d="M424.875 287.386C424.875 287.386 437.986 270.233 410.925 264.875C409.796 264.65 408.665 265.336 408.36 266.419C406.888 271.62 404.765 285.844 424.875 287.386Z" fill="black"/>
<path d="M426.182 295.627C426.182 295.627 445.266 296.635 438.386 273.682C438.1 272.723 437.087 272.23 436.098 272.556C431.343 274.121 419.123 279.819 426.182 295.627Z" fill="black"/>
<path d="M376.91 292.12C381.06 290.83 408.5 284.1 403.61 334.45C403.99 319.9 390.48 316.21 386.83 315.49C385.167 307.1 381.79 299.144 376.91 292.12V292.12Z" fill="black"/>
<path d="M391.05 490.59C391.429 491.409 391.641 492.295 391.673 493.196C391.706 494.097 391.559 494.996 391.24 495.84L389.55 500.55L363.6 501.79C363.146 501.767 362.708 501.612 362.34 501.345C361.972 501.078 361.689 500.71 361.526 500.286C361.363 499.861 361.327 499.399 361.422 498.954C361.516 498.509 361.738 498.101 362.06 497.78L367.98 489.92C370.327 486.821 371.63 483.057 371.7 479.17C372.24 445.07 355.72 418.14 329.6 407.39C312.74 400.45 291 346.05 290.67 345.2C303.97 346.9 316.34 352.14 324.47 356.71C325.95 367.92 329.7 379.08 338.01 385.32C353.516 396.979 367.758 410.231 380.5 424.86C384.978 430.039 387.413 436.674 387.35 443.52C387.22 457.65 387.53 482.6 391.05 490.59V490.59Z" fill="black"/>
<path d="M171.7 307.45C160.18 300.08 153.04 291.11 149.13 281.67C142 264.47 145.57 245.69 152.84 232.08C163.98 211.24 151.02 182.65 150.74 182.02C150.737 182.02 150.735 182.019 150.733 182.017C150.731 182.015 150.73 182.013 150.73 182.01C148.264 180.88 145.899 179.542 143.66 178.01C139.734 175.266 135.227 173.466 130.49 172.75C116.42 170.84 117.97 158.78 119.55 152.29C119.74 151.507 120.134 150.788 120.69 150.205C121.247 149.622 121.947 149.196 122.72 148.97L147.78 141.6C151.667 140.467 155.176 138.308 157.94 135.35C162.88 130.01 172.2 121.99 181.26 125.42C183.332 126.17 185.365 127.024 187.35 127.98C188.313 128.464 189.385 128.689 190.461 128.635C191.537 128.581 192.581 128.248 193.49 127.67C199.92 123.56 213.52 113.06 213.01 93.02C212.31 66.05 223.46 48.28 231.69 45.86C231.69 45.86 221.55 65.84 225.27 76.74C228.31 85.64 223.88 101.8 222.14 107.43C221.386 109.847 220.897 112.338 220.68 114.86C220.605 115.768 220.585 116.68 220.62 117.59C220.628 118.052 220.771 118.502 221.032 118.884C221.293 119.265 221.661 119.562 222.089 119.737C222.517 119.911 222.987 119.956 223.441 119.866C223.894 119.776 224.311 119.555 224.64 119.23C226.96 116.77 236.51 112.3 249.3 115.55C270.33 120.9 285.89 99.11 277.49 76.78C271.09 59.78 266.32 61.42 269.09 44.22C269.09 44.22 280.11 63.69 289.13 73.19C289.677 73.7551 290.353 74.1777 291.101 74.4211C291.848 74.6644 292.644 74.7209 293.418 74.5858C294.193 74.4506 294.922 74.1279 295.543 73.6458C296.164 73.1636 296.657 72.5368 296.98 71.82C304.66 54.61 305.65 23.01 304.52 18.21C304.502 18.1444 304.489 18.0775 304.48 18.01C305.03 19.31 331.05 120.74 225.8 135.35C229.027 135.355 232.251 135.529 235.46 135.87C235.46 135.87 225.65 164.28 204.13 163.89C203.57 163.882 203.014 163.987 202.496 164.2C201.977 164.414 201.508 164.73 201.116 165.13C200.724 165.531 200.418 166.007 200.216 166.529C200.013 167.052 199.92 167.61 199.94 168.17C200.6 184.77 207.1 213.24 231 225.1C243.29 231.2 249.24 235.07 253.19 239.62C258.987 246.466 266.372 251.787 274.7 255.12C285.026 259.129 296.047 261.04 307.12 260.74C311.571 260.583 316.027 260.807 320.44 261.41C334.52 263.42 361.5 270.1 376.91 292.12C381.79 299.144 385.167 307.1 386.83 315.49C389 325.89 389.17 338.26 386.49 352.98C386.124 354.983 385.606 356.956 384.94 358.88C382.35 366.3 375.61 391.13 394.2 407.57C399.304 411.951 403.256 417.517 405.71 423.78C408.163 430.449 409.262 437.541 408.94 444.64C407.84 474.88 406.74 478.51 412.36 494.22C412.9 495.73 413.42 497.14 413.91 498.43C414.277 499.407 414.41 500.457 414.296 501.495C414.183 502.532 413.827 503.529 413.258 504.404C412.689 505.279 411.922 506.008 411.019 506.532C410.116 507.056 409.102 507.36 408.06 507.42L390.02 508C389.668 508.011 389.318 507.937 389.002 507.782C388.685 507.627 388.411 507.397 388.204 507.112C387.997 506.827 387.863 506.495 387.813 506.146C387.764 505.797 387.8 505.441 387.92 505.11L389.55 500.55L391.24 495.84C391.559 494.996 391.706 494.097 391.674 493.196C391.641 492.294 391.429 491.409 391.05 490.59C387.53 482.6 387.22 457.65 387.35 443.52C387.413 436.674 384.978 430.039 380.5 424.86C367.758 410.231 353.517 396.979 338.01 385.32C329.7 379.08 325.95 367.92 324.47 356.71C316.34 352.14 303.97 346.9 290.67 345.2L290.66 345.19C285.98 344.563 281.244 344.456 276.54 344.87C214.26 350.71 191.51 319.05 191.51 319.05C182.96 324.075 175.047 330.112 167.94 337.03C166.553 338.37 165.516 340.03 164.92 341.864C164.323 343.698 164.186 345.65 164.52 347.55C166.04 356.33 168.33 371.95 177.45 379.32C185.62 385.93 185.47 399.11 186.15 402.15C186.316 402.896 186.253 403.675 185.97 404.386C185.686 405.096 185.195 405.704 184.56 406.13L171.7 414.76C171.308 415.027 170.859 415.199 170.389 415.265C169.92 415.331 169.441 415.287 168.991 415.138C168.54 414.99 168.13 414.739 167.792 414.407C167.454 414.074 167.196 413.668 167.04 413.22C165.74 409.44 164.36 403.52 166.44 399.11C169.79 392 160.75 380.74 155.21 372.03C152.588 367.913 150.288 363.601 148.33 359.13C146.297 354.562 144.791 349.778 143.84 344.87C141.59 332.5 144.45 320.98 158.26 315.9C159.44 315.47 160.55 315 161.62 314.49C161.65 314.48 161.66 314.47 161.68 314.47C161.695 314.466 161.708 314.459 161.72 314.45C165.423 312.706 168.799 310.338 171.7 307.45V307.45Z" fill="black"/>
<path d="M171.7 307.45C168.799 310.338 165.423 312.706 161.72 314.45C161.705 314.453 161.691 314.46 161.68 314.47C161.66 314.47 161.65 314.48 161.62 314.49C160.29 314.97 145.19 320 127.24 307.46C127.24 307.46 121.94 317.76 126.34 325C130.74 332.24 143.84 344.87 143.84 344.87C144.791 349.778 146.297 354.562 148.33 359.13L139.19 367.21C138.811 367.544 138.361 367.787 137.874 367.921C137.387 368.054 136.876 368.074 136.38 367.98C135.884 367.885 135.416 367.678 135.012 367.375C134.608 367.072 134.279 366.68 134.05 366.23L129.68 354.78C129.166 353.437 128.141 352.351 126.83 351.76C113.66 345.84 109.13 337.36 104.64 312.15C99.9199 285.69 113.12 283.48 127.26 288.21C131.125 289.609 135.337 289.728 139.275 288.551C143.212 287.373 146.667 284.961 149.13 281.67C153.04 291.11 160.18 300.08 171.7 307.45V307.45Z" fill="black"/>
<path d="M177.45 379.32C168.33 371.95 166.04 356.33 164.52 347.55C164.186 345.651 164.323 343.698 164.92 341.864C165.516 340.03 166.553 338.37 167.94 337.03C169.54 335.494 171.498 333.688 173.74 331.758C175.211 324.85 179.563 319.098 188.257 315.9C189.437 315.47 190.547 315 191.617 314.49C191.647 314.48 191.657 314.47 191.677 314.47C191.692 314.466 191.705 314.459 191.717 314.45L191.839 314.392C193.005 313.818 194.01 312.965 194.767 311.909C195.524 310.852 196.008 309.626 196.177 308.337C196.346 307.049 196.194 305.739 195.736 304.524C195.277 303.308 194.525 302.224 193.547 301.369C187.272 296.014 182.335 289.269 179.127 281.669C171.997 264.469 175.567 245.689 182.837 232.079C193.977 211.239 181.017 182.649 180.737 182.019C180.734 182.019 180.732 182.018 180.73 182.016C180.728 182.014 180.727 182.012 180.727 182.009C178.261 180.879 175.896 179.541 173.657 178.009C169.731 175.265 165.224 173.465 160.487 172.749C146.417 170.839 147.967 158.779 149.547 152.289C149.737 151.506 150.131 150.787 150.687 150.204C151.244 149.621 151.944 149.195 152.717 148.969L177.777 141.599C181.664 140.466 185.173 138.307 187.937 135.349C192.877 130.009 202.197 121.989 211.257 125.419C213.322 126.166 215.348 127.017 217.327 127.969C218.291 128.456 219.365 128.684 220.444 128.632C221.523 128.579 222.57 128.247 223.482 127.669C228.872 124.309 233.492 119.851 237.041 114.584C230.626 115.239 226.13 117.643 224.641 119.226C224.312 119.551 223.895 119.772 223.442 119.862C222.988 119.952 222.518 119.907 222.09 119.733C221.662 119.558 221.294 119.261 221.033 118.88C220.772 118.498 220.629 118.048 220.621 117.586C220.586 116.676 220.606 115.764 220.681 114.856C220.898 112.334 221.387 109.843 222.141 107.426C223.881 101.796 228.311 85.636 225.271 76.736C221.551 65.836 231.691 45.856 231.691 45.856C223.461 48.276 212.311 66.046 213.011 93.016C213.521 113.056 199.921 123.556 193.491 127.666C192.582 128.244 191.538 128.577 190.462 128.631C189.386 128.685 188.314 128.46 187.351 127.976C185.366 127.02 183.333 126.166 181.261 125.416C172.201 121.986 162.881 130.006 157.941 135.346C155.177 138.304 151.668 140.463 147.781 141.596L122.721 148.966C121.948 149.192 121.248 149.618 120.691 150.201C120.135 150.784 119.741 151.503 119.551 152.286C117.971 158.776 116.421 170.836 130.491 172.746C135.228 173.462 139.735 175.262 143.661 178.006C145.9 179.538 148.265 180.876 150.731 182.006C150.731 182.009 150.732 182.011 150.734 182.013C150.736 182.015 150.738 182.016 150.741 182.016C151.021 182.646 163.981 211.236 152.841 232.076C145.571 245.686 142.001 264.466 149.131 281.666C153.041 291.106 160.181 300.076 171.701 307.446C168.8 310.334 165.424 312.702 161.721 314.446C161.709 314.455 161.696 314.462 161.681 314.466C161.661 314.466 161.651 314.476 161.621 314.486C160.551 314.996 159.441 315.466 158.261 315.896C144.451 320.976 141.591 332.496 143.841 344.866C144.792 349.774 146.298 354.558 148.331 359.126C150.289 363.597 152.589 367.909 155.211 372.026C160.751 380.736 169.791 391.996 166.441 399.106C164.361 403.516 165.741 409.436 167.041 413.216C167.197 413.664 167.455 414.07 167.793 414.403C168.131 414.735 168.541 414.986 168.992 415.135C169.442 415.283 169.921 415.327 170.39 415.261C170.86 415.195 171.309 415.023 171.701 414.756L184.561 406.126C185.196 405.7 185.687 405.092 185.971 404.382C186.254 403.671 186.317 402.892 186.151 402.146C185.47 399.11 185.62 385.93 177.45 379.32V379.32Z" fill="black"/>
<path d="M419.523 496.323C419.05 495.059 418.542 493.679 418.013 492.197C413.525 479.656 413.677 475.972 414.513 455.523C414.642 452.371 414.788 448.848 414.933 444.862C415.281 436.97 414.058 429.086 411.333 421.671C408.546 414.484 404.025 408.097 398.174 403.078C394.174 399.542 381.817 386.049 390.602 360.854C391.373 358.637 391.972 356.363 392.392 354.054C394.192 344.661 394.813 335.08 394.239 325.533C395.396 326.666 396.295 328.034 396.876 329.545C397.458 331.057 397.707 332.675 397.608 334.291C397.567 335.845 398.131 337.354 399.181 338.501C400.231 339.647 401.685 340.341 403.237 340.437C403.362 340.445 403.487 340.448 403.611 340.448C405.101 340.447 406.537 339.891 407.64 338.89C408.743 337.888 409.434 336.512 409.578 335.029C411.778 312.466 407.966 297.259 398.261 289.829C391.698 284.808 384.247 284.729 379.41 285.44C362.549 264.259 335.976 257.566 321.29 255.461C316.541 254.811 311.744 254.569 306.954 254.738C296.676 255.019 286.446 253.245 276.863 249.52C269.44 246.55 262.863 241.795 257.716 235.677C253.178 230.453 246.886 226.277 233.67 219.722C210.65 208.303 206.715 179.322 206.045 169.855C228.339 168.786 238.991 143.504 240.845 138.614C269.737 131.692 300.939 114.326 310.766 72.608C313.603 59.8789 314.409 46.7809 313.153 33.8C312.653 28.4 311.929 24.049 311.404 21.348C310.445 16.415 310.087 14.569 307.871 13.048C306.858 12.3542 305.657 11.9874 304.429 11.9969C303.201 12.0064 302.006 12.3917 301.004 13.101C300.002 13.8104 299.241 14.8097 298.824 15.9644C298.407 17.1192 298.353 18.374 298.671 19.56C299.456 23.402 298.671 51.376 292.214 67.675C284.05 58.407 274.414 41.443 274.314 41.264C273.702 40.1818 272.768 39.3164 271.643 38.7877C270.518 38.2589 269.256 38.0929 268.032 38.3125C266.808 38.5321 265.683 39.1265 264.811 40.0136C263.94 40.9006 263.366 42.0364 263.168 43.264C261.058 56.332 262.938 60.651 266.729 67.764C268.709 71.3477 270.427 75.0693 271.872 78.9C275.421 88.331 274.049 98.188 268.29 104.625C263.79 109.65 257.573 111.465 250.779 109.739C243.093 107.635 234.943 107.971 227.456 110.7C227.583 110.202 227.724 109.7 227.879 109.194C230.499 100.667 234.379 84.859 230.948 74.801C228.954 68.964 233.309 55.949 237.036 48.576C237.566 47.5311 237.779 46.3538 237.647 45.1894C237.516 44.025 237.047 42.9245 236.298 42.0238C235.548 41.123 234.551 40.4614 233.43 40.1206C232.309 39.7798 231.113 39.7747 229.989 40.106C218.112 43.606 206.27 64.412 207.01 93.176C207.403 108.415 198.117 117.595 190.259 122.613C190.225 122.632 190.187 122.643 190.147 122.643C190.108 122.643 190.07 122.632 190.036 122.613C187.867 121.562 185.645 120.625 183.379 119.806C174.187 116.329 163.586 120.406 153.53 131.28C151.503 133.444 148.93 135.019 146.081 135.839L121.023 143.215C119.244 143.742 117.633 144.726 116.352 146.069C115.072 147.412 114.165 149.067 113.723 150.869C111.655 159.352 112.305 165.903 115.709 170.897C118.651 175.212 123.351 177.835 129.68 178.697C133.501 179.284 137.133 180.751 140.29 182.982C142.142 184.241 144.069 185.387 146.059 186.414C148.559 192.792 155.729 213.945 147.546 229.258C139.409 244.49 136.451 263.123 142.214 280.272C141.646 280.752 141.04 281.187 140.404 281.572C137.021 283.606 133.345 283.916 129.164 282.519C118.349 278.903 109.986 279.556 104.31 284.458C98.0689 289.846 96.2439 299.25 98.7299 313.206C103.063 337.537 107.774 349.692 124.161 357.146L128.448 368.369C128.523 368.563 128.607 368.754 128.701 368.94C129.34 370.212 130.264 371.319 131.402 372.175C132.539 373.032 133.859 373.614 135.258 373.876C135.841 373.988 136.433 374.045 137.027 374.045C139.291 374.044 141.476 373.212 143.167 371.707L146.414 368.835C147.89 371.597 149.231 373.809 150.145 375.247C151.045 376.658 152.029 378.135 153.045 379.647C156.08 384.186 162.394 393.631 161.018 396.552C158.125 402.697 159.611 410.068 161.368 415.17C161.817 416.488 162.566 417.684 163.555 418.665C164.544 419.645 165.746 420.383 167.068 420.821C168.392 421.27 169.801 421.407 171.187 421.22C172.572 421.033 173.895 420.528 175.053 419.745L187.91 411.106C189.552 410.013 190.823 408.448 191.555 406.616C192.287 404.785 192.446 402.774 192.01 400.851C191.955 400.582 191.86 399.716 191.783 399.021C191.163 393.383 189.873 381.651 181.226 374.658C174.3 369.058 172.026 355.776 170.66 347.84L170.434 346.528C170.268 345.594 170.333 344.634 170.625 343.731C170.917 342.829 171.425 342.012 172.107 341.352C177.712 335.925 183.817 331.04 190.341 326.763C199.341 335.799 225.416 355.693 277.108 350.848C280.218 350.569 283.346 350.552 286.459 350.797C292.417 365.218 310.533 406.029 327.324 412.94C351.482 422.88 366.189 448.222 365.707 479.075C365.649 481.691 364.77 484.222 363.193 486.31L357.446 493.94C356.41 495.121 355.728 496.57 355.479 498.122C355.229 499.673 355.423 501.263 356.036 502.709C356.65 504.155 357.66 505.399 358.949 506.297C360.237 507.195 361.754 507.712 363.323 507.787C363.417 507.787 363.512 507.794 363.606 507.794C363.7 507.794 363.796 507.794 363.892 507.787L381.869 506.928C382.13 508.884 383.092 510.679 384.576 511.98C386.06 513.281 387.965 513.999 389.939 514.001H390.212L408.254 513.426L408.406 513.419C410.387 513.304 412.313 512.726 414.03 511.73C415.746 510.733 417.204 509.348 418.286 507.684C419.368 506.021 420.044 504.127 420.26 502.154C420.475 500.181 420.224 498.186 419.526 496.328L419.523 496.323ZM284.775 77.323C286.159 78.7863 287.927 79.8297 289.878 80.3336C291.828 80.8376 293.88 80.7815 295.8 80.172C295.869 80.151 295.938 80.129 296 80.106C294.182 84.9639 291.852 89.6144 289.049 93.979C287.511 96.3623 285.825 98.6461 284 100.817C286.546 92.7269 286.401 84.0291 283.584 76.029C283.985 76.4763 284.382 76.906 284.775 77.318V77.323ZM390.968 299.365C394.201 301.839 396.381 306.522 397.439 313.065C395.655 312.049 393.773 311.215 391.823 310.574C390.663 306.065 389.052 301.683 387.016 297.496C388.448 297.84 389.793 298.477 390.968 299.365V299.365ZM219.762 79.234C220.699 82.669 220.391 88.552 219.001 95.511C219.027 94.6364 219.027 93.7543 219.001 92.865C218.871 88.308 219.126 83.7482 219.762 79.234V79.234ZM130.674 302.534C129.972 302.044 129.174 301.71 128.332 301.554C127.49 301.398 126.625 301.424 125.794 301.63C124.964 301.836 124.187 302.217 123.515 302.748C122.844 303.279 122.294 303.948 121.903 304.709C121.203 306.069 115.244 318.278 121.214 328.109C125.184 334.648 134.738 344.329 138.37 347.909C139.094 351.137 140.045 354.309 141.216 357.403L138.146 360.118L135.287 352.632C134.755 351.231 133.951 349.948 132.921 348.859C131.891 347.769 130.656 346.894 129.287 346.284C119.111 341.706 114.977 335.978 110.545 311.092C108.958 302.184 109.545 295.783 112.153 293.531C114.305 291.672 119.119 291.803 125.361 293.89C128.975 295.19 132.841 295.638 136.657 295.199C140.473 294.761 144.136 293.447 147.361 291.36C151.155 297.583 156.015 303.09 161.719 307.628C160.961 308.081 160.164 308.511 159.327 308.919C157.61 309.467 145.325 312.771 130.674 302.538V302.534ZM142.069 320.701C140.658 322.721 139.543 324.933 138.757 327.268C138.446 328.203 138.184 329.153 137.971 330.115C135.584 327.552 133.411 324.8 131.471 321.884C130.632 320.23 130.36 318.347 130.695 316.523C134.301 318.376 138.121 319.78 142.069 320.705V320.701ZM383.962 494.811L371.354 495.411L372.776 493.522C375.896 489.414 377.622 484.416 377.702 479.257C378.264 443.362 360.709 413.696 331.888 401.836C329.31 400.775 321.932 395.645 309.126 370.981C305.81 364.595 302.89 358.337 300.668 353.359C307.016 355.151 313.169 357.575 319.034 360.595C321.001 372.082 325.393 383.351 334.402 390.116C349.577 401.504 363.507 414.461 375.962 428.773C379.484 432.848 381.399 438.068 381.348 443.454C381.115 468.938 382.473 485.454 385.384 492.577C385.502 492.86 385.537 493.17 385.484 493.472C385.421 493.836 385.235 494.167 384.959 494.411C384.682 494.655 384.33 494.798 383.962 494.815V494.811ZM408.223 501.134C408.174 501.216 408.106 501.284 408.026 501.335C407.946 501.386 407.855 501.418 407.76 501.427L395.47 501.818L396.865 497.925C397.456 496.355 397.732 494.685 397.676 493.008C397.621 491.332 397.235 489.683 396.542 488.156C394.332 483.156 393.142 466.488 393.348 443.565C393.426 435.26 390.472 427.211 385.04 420.928C372.024 405.969 357.466 392.425 341.608 380.522C326.794 369.397 329.022 335.422 331.13 323.274C331.275 322.494 331.263 321.693 331.096 320.918C330.93 320.143 330.611 319.408 330.158 318.757C329.706 318.105 329.129 317.55 328.46 317.123C327.792 316.696 327.045 316.406 326.264 316.27C325.483 316.133 324.682 316.153 323.909 316.327C323.135 316.502 322.404 316.829 321.757 317.288C321.11 317.747 320.561 318.33 320.141 319.002C319.721 319.675 319.439 320.424 319.31 321.207C317.978 329.625 317.436 338.15 317.689 346.669C307.354 342.178 292.048 337.388 275.989 338.897C233.382 342.885 210.756 328.864 201.489 320.79C202.981 320.16 204.489 319.584 206.003 319.102C237.253 309.174 237.482 267.308 237.477 265.531C237.474 264.743 237.317 263.963 237.013 263.236C236.709 262.509 236.265 261.849 235.706 261.294C235.148 260.738 234.485 260.298 233.756 259.999C233.027 259.7 232.246 259.547 231.458 259.55C230.67 259.552 229.891 259.71 229.164 260.013C228.437 260.317 227.777 260.761 227.221 261.32C226.666 261.879 226.226 262.542 225.927 263.27C225.627 263.999 225.474 264.78 225.477 265.568C225.477 265.915 225.319 300.374 202.369 307.668C186.058 312.85 171.198 325.578 163.792 332.704C161.694 334.724 160.125 337.228 159.223 339.997C158.32 342.765 158.112 345.713 158.616 348.581L158.838 349.869C160.486 359.469 163.243 375.543 173.685 383.988C178.49 387.873 179.385 395.978 179.86 400.332C179.925 400.919 179.983 401.45 180.047 401.932L171.706 407.532C171.224 405.032 171.271 402.95 171.88 401.658C176.147 392.596 169.18 382.17 163.027 372.97C162.067 371.535 161.127 370.136 160.28 368.798C153.057 357.438 146.598 341.571 150.134 331.105C151.646 326.629 154.987 323.495 160.345 321.522C188.219 311.261 188.681 283.177 188.688 281.986C188.692 281.198 188.541 280.417 188.243 279.687C187.945 278.958 187.507 278.294 186.952 277.734C186.398 277.174 185.738 276.729 185.012 276.423C184.285 276.118 183.506 275.959 182.718 275.955H182.687C181.101 275.955 179.579 276.583 178.455 277.702C177.33 278.821 176.695 280.339 176.687 281.925C176.327 288.191 174.241 294.235 170.659 299.389C146.096 280.751 148.259 253.397 158.138 234.904C166.08 220.04 163.4 202.27 160.226 190.923C161.619 191.096 163.022 191.184 164.426 191.187C171.907 191.177 179.158 188.604 184.973 183.897C185.592 183.409 186.109 182.805 186.494 182.117C186.879 181.43 187.125 180.673 187.218 179.891C187.311 179.109 187.249 178.315 187.036 177.557C186.822 176.798 186.461 176.09 185.973 175.471C185.486 174.852 184.881 174.335 184.194 173.949C183.506 173.564 182.75 173.318 181.967 173.225C181.185 173.132 180.392 173.194 179.633 173.408C178.875 173.622 178.166 173.982 177.547 174.47C171.547 179.194 161.388 182.781 147.03 173.041C142.343 169.765 136.956 167.627 131.298 166.797C128.481 166.414 126.573 165.517 125.628 164.13C124.734 162.818 123.961 160.087 125.203 154.488L149.472 147.344C154.399 145.912 158.847 143.174 162.344 139.42C165.382 136.134 173.099 128.738 179.139 131.02C181.019 131.697 182.864 132.469 184.667 133.332C186.559 134.275 188.663 134.714 190.775 134.605C192.886 134.497 194.934 133.845 196.72 132.713C204.52 127.932 210.809 121.043 214.86 112.84C214.797 113.359 214.746 113.874 214.706 114.386C214.612 115.525 214.584 116.669 214.623 117.811C214.686 119.477 215.241 121.086 216.219 122.436C217.196 123.786 218.552 124.816 220.115 125.395C221.627 125.969 223.276 126.083 224.853 125.722C226.43 125.362 227.865 124.544 228.979 123.371C229.925 122.491 237.007 118.606 247.825 121.355C249.596 121.807 251.403 122.106 253.225 122.248C244.386 125.648 235.181 128.006 225.796 129.273C215.011 129.214 199.708 131.049 194.538 141.227C194.181 141.93 193.966 142.696 193.905 143.481C193.845 144.267 193.939 145.057 194.184 145.806C194.428 146.555 194.818 147.249 195.33 147.847C195.843 148.446 196.468 148.937 197.171 149.294C197.873 149.651 198.639 149.866 199.425 149.927C200.211 149.987 201.001 149.893 201.75 149.648C202.499 149.404 203.192 149.014 203.791 148.502C204.389 147.989 204.881 147.364 205.238 146.661C207.027 143.139 215.727 141.361 225.116 141.294C225.518 141.34 225.923 141.346 226.326 141.31C222.346 148.428 214.955 158.104 204.243 157.881C202.865 157.857 201.498 158.115 200.223 158.638C198.949 159.161 197.794 159.939 196.831 160.924C195.868 161.909 195.115 163.08 194.62 164.366C194.125 165.651 193.898 167.024 193.952 168.401C194.838 190.601 204.337 218.558 228.343 230.466C239.823 236.161 245.331 239.704 248.662 243.54C255.089 251.14 263.292 257.036 272.543 260.708C283.608 265.013 295.423 267.06 307.291 266.727C311.401 266.58 315.516 266.783 319.591 267.334C332.959 269.25 357.491 275.386 371.591 294.964C381.844 309.197 384.87 328.352 380.591 351.896C380.283 353.594 379.843 355.266 379.277 356.896C376.434 365.05 368.822 393.125 390.23 412.059C394.607 415.782 397.998 420.527 400.102 425.874C402.271 431.806 403.239 438.11 402.951 444.42C402.807 448.383 402.663 451.888 402.534 455.02C401.677 475.883 401.446 481.489 406.72 496.229C407.271 497.771 407.8 499.212 408.294 500.529C408.334 500.628 408.349 500.736 408.337 500.843C408.324 500.949 408.285 501.051 408.223 501.138V501.134Z" fill="black"/>
</g>
</g>
<defs>
<clipPath id="clip0_1000_6424">
<rect width="512" height="512" fill="white"/>
</clipPath>
<clipPath id="clip1_1000_6424">
<rect width="512" height="512" fill="white" transform="translate(3 7)"/>
</clipPath>
</defs>
</svg>
