<?xml version="1.0"?>
<svg xmlns="http://www.w3.org/2000/svg" xmlns:xlink="http://www.w3.org/1999/xlink" xmlns:svgjs="http://svgjs.com/svgjs" version="1.1" width="512" height="512" x="0" y="0" viewBox="0 0 511.86 511.86" style="enable-background:new 0 0 512 512" xml:space="preserve" class=""><g><g xmlns="http://www.w3.org/2000/svg"><g><g><path d="m496.728 165.532-302.194 307.795c-10.293 10.484-27.154 10.663-37.666.4l-111.574-108.927c-10.517-10.268-10.695-27.098-.397-37.586l302.194-307.796c10.293-10.484 27.155-10.663 37.666-.4l111.573 108.927c10.518 10.268 10.696 27.098.398 37.587z" fill="#ffffff" data-original="#b8d7e6" class=""/><g><path d="m347.085 19.425-85.584 87.17 149.65 146.101 85.584-87.17c10.295-10.486 10.117-27.308-.397-37.573l-111.574-108.928c-10.514-10.265-27.384-10.086-37.679.4z" fill="#ffffff" data-original="#5177e8" class=""/></g><g><path d="m350.174 193.165 60.977 59.531 85.584-87.17c10.295-10.486 10.117-27.308-.397-37.573l-41.939-40.944z" fill="#ffffff" data-original="#ff9000" class=""/></g></g><g><path d="m428.442 136.533-243.246 356.314c-8.285 12.136-24.851 15.289-37.006 7.042l-129.012-87.525c-12.161-8.25-15.3-24.785-7.011-36.927l243.245-356.314c8.285-12.136 24.851-15.289 37.006-7.042l129.012 87.525c12.161 8.25 15.301 24.785 7.012 36.927z" fill="#ffffff" data-original="#ebf9ff" class=""/><path d="m421.43 99.606-129.012-87.526c-9.959-6.756-22.876-5.856-31.777 1.363l127.002 86.162c12.161 8.25 15.3 24.785 7.011 36.927l-243.244 356.315c-1.497 2.193-3.267 4.087-5.229 5.679l2.01 1.363c12.155 8.246 28.721 5.094 37.006-7.042l243.246-356.314c8.288-12.142 5.148-28.677-7.013-36.927z" fill="#ffffff" data-original="#d7effa" class=""/><g><path d="m255.407 19.13-68.889 100.911 102.532 69.561 139.397-53.077c8.287-12.139 5.149-28.666-7.009-36.914l-129.012-87.525c-12.158-8.249-28.732-5.095-37.019 7.044z" fill="#ffffff" data-original="#7191f0" class=""/></g><path d="m421.438 99.611-129.012-87.525c-12.158-8.248-28.732-5.094-37.019 7.045l-3.613 5.292c8.212-3.777 18.142-3.296 26.154 2.14l129.012 87.525c8.862 6.012 12.925 16.423 11.27 26.327l10.216-3.89c8.288-12.139 5.15-28.666-7.008-36.914z" fill="#ffffff" data-original="#6084f0" class=""/><path d="m128.732 352.113-22.082 32.347c-7.282 10.667-21.842 13.438-32.525 6.19-10.688-7.251-13.448-21.784-6.162-32.456l22.082-32.347c7.282-10.667 21.842-13.437 32.525-6.19 10.688 7.251 13.447 21.784 6.162 32.456z" fill="#ffffff" data-original="#ffe940" class=""/><g><path d="m289.05 189.602 70.507 47.834 68.889-100.911c8.287-12.139 5.149-28.666-7.009-36.914l-48.493-32.899z" fill="#ffffff" data-original="#ffe940" class=""/></g><path d="m421.438 99.611-48.493-32.899-10.762 15.765 25.256 17.134c12.158 8.248 15.296 24.775 7.009 36.914l-58.127 85.146 23.238 15.765 68.889-100.911c8.286-12.139 5.148-28.666-7.01-36.914z" fill="#ffffff" data-original="#f5dc1d" class=""/></g></g><g><path d="m501.577 122.585-111.58-108.933c-13.01-12.702-35.618-12.918-48.269.524l-13.138 13.382-31.954-21.679c-.001 0-.002-.001-.002-.001l-.005-.003c-15.546-10.55-36.815-6.5-47.411 9.02l-194.238 284.524c-5.467 8.008 6.922 16.468 12.389 8.457l121.127-177.431 125.194 84.935 35.432 24.039-170.121 249.199c-5.946 8.711-17.878 10.981-26.601 5.065l-129.012-87.525c-8.621-5.85-10.9-17.89-5.027-26.492l26.563-38.91c5.468-8.009-6.92-16.464-12.389-8.457l-26.563 38.91c-10.488 15.362-6.401 36.918 8.995 47.361l129.012 87.525c15.357 10.42 36.951 6.302 47.411-9.021l24.107-35.312c.944-.374 1.828-.943 2.586-1.714l198.41-202.089c.003-.003.007-.006.01-.009l34.757-35.401c6.794-6.92-3.908-17.426-10.703-10.51l-29.518 30.065-27.355-26.707 50.957-74.644c5.141-7.531 7.036-16.605 5.335-25.552-.146-.767-.325-1.521-.52-2.269l15.055-15.335 36.581 35.713c7.275 7.097 7.413 19.706.292 26.959l-18.106 18.441c-6.784 6.911 3.895 17.442 10.703 10.51l18.107-18.442c13.028-13.27 12.797-35.2-.511-48.193zm-84.357-16.772c4.218 2.861 7.065 7.191 8.016 12.191.952 5.005-.11 10.083-2.988 14.3l-64.668 94.727-58.094-39.413 75.437-110.502zm-155.618-82.454c5.948-8.713 17.886-10.985 26.613-5.068l74.295 50.404-75.437 110.502-90.119-61.139zm104.143 218.315c.002-.003.005-.006.007-.009l9.344-13.688 25.434 24.831-139.119 141.699zm66.326-142.63c-1.873-2.115-4.022-4.011-6.423-5.639l-84.442-57.287 11.236-11.444c7.197-7.313 19.698-7.491 27.083-.282l17.219 16.81 47.034 45.919z" fill="#000000" data-original="#000000" class=""/><path d="m286.176 46.262c-3.42-2.334-8.087-1.454-10.423 1.966l-39.588 57.989c-5.307 7.773 6.678 16.822 12.389 8.457l39.588-57.989c2.335-3.421 1.455-8.087-1.966-10.423z" fill="#000000" data-original="#000000" class=""/><path d="m303.771 93.582c5.468-8.009-6.92-16.464-12.389-8.457l-27.32 40.019c-5.307 7.773 6.678 16.822 12.389 8.457z" fill="#000000" data-original="#000000" class=""/><path d="m122.984 432.861c3.744 2.25 7.219 1.594 10.423-1.966l131.268-192.284c5.468-8.009-6.921-16.464-12.389-8.457l-131.267 192.284c-2.336 3.421-1.456 8.087 1.965 10.423z" fill="#000000" data-original="#000000" class=""/><path d="m244.322 314.148-89.556 131.185c-5.307 7.773 6.678 16.822 12.389 8.457l89.556-131.185c5.468-8.009-6.921-16.464-12.389-8.457z" fill="#000000" data-original="#000000" class=""/><path d="m166.454 304.348c2.395 0 4.749-1.146 6.201-3.272l58.273-85.36c5.468-8.009-6.919-16.463-12.389-8.457l-58.273 85.36c-3.214 4.708.653 11.729 6.188 11.729z" fill="#000000" data-original="#000000" class=""/><path d="m126.78 313.451c-14.077-9.553-33.335-5.888-42.93 8.167l-22.083 32.348c-22.604 33.109 28.512 67.778 51.076 34.723l22.083-32.347c9.528-13.956 5.736-33.474-8.146-42.891zm-4.242 34.433-22.083 32.347c-11.533 16.892-37.882-.84-26.299-17.809l22.083-32.348c11.347-16.62 37.914.794 26.299 17.81z" fill="#000000" data-original="#000000" class=""/><path d="m331.101 183.956 18.333 12.438c7.744 5.255 16.621-6.849 8.421-12.414l-18.333-12.438c-8.025-5.446-16.445 6.968-8.421 12.414z" fill="#000000" data-original="#000000" class=""/><path d="m345.616 162.692 18.333 12.438c7.745 5.253 16.623-6.849 8.422-12.412l-18.333-12.438c-8.025-5.445-16.447 6.968-8.422 12.412z" fill="#000000" data-original="#000000" class=""/><path d="m360.131 141.431 18.333 12.438c7.744 5.255 16.621-6.849 8.421-12.414l-18.333-12.438c-8.024-5.446-16.444 6.969-8.421 12.414z" fill="#000000" data-original="#000000" class=""/><path d="m374.646 120.167 18.333 12.438c7.745 5.253 16.623-6.849 8.422-12.412l-18.333-12.438c-8.026-5.443-16.447 6.969-8.422 12.412z" fill="#000000" data-original="#000000" class=""/></g></g></g></svg>
