<svg width="60" height="60" viewBox="0 0 60 60" fill="none" xmlns="http://www.w3.org/2000/svg">
<g clip-path="url(#clip0_491_4005)">
<rect x="17" y="2" width="41" height="41" rx="2" fill="#FFF8F8"/>
<rect x="17" y="2" width="41" height="41" rx="2" fill="#FFF8F8"/>
<rect x="17" y="2" width="41" height="41" rx="2" fill="#FFF8F8"/>
<rect x="2" y="17" width="41" height="41" rx="2" fill="#FFF8F8"/>
<rect x="2" y="17" width="41" height="41" rx="2" fill="#FFF8F8"/>
<rect x="2" y="17" width="41" height="41" rx="2" fill="#FFF8F8"/>
<path d="M38.6717 20.1562H27.5394C26.8922 20.1562 26.3676 20.6809 26.3676 21.3281C26.3676 21.9753 26.8922 22.5 27.5394 22.5H31.0635C31.0209 22.5407 30.9782 22.5811 30.9365 22.6228C29.104 24.4553 28.291 27.0794 28.7328 29.6097L26.8157 31.5268C26.818 31.4477 26.8197 31.3684 26.8197 31.2889C26.8197 28.4647 25.2995 25.8309 22.8523 24.4152C22.4893 24.2051 22.0417 24.2051 21.6787 24.4152C19.2315 25.8309 17.7113 28.4647 17.7113 31.2889C17.7113 31.3684 17.713 31.4476 17.7153 31.5268L15.7982 29.6097C16.24 27.0794 15.427 24.4554 13.5945 22.6228C13.5528 22.5811 13.51 22.5407 13.4675 22.5H16.9925C17.6397 22.5 18.1644 21.9753 18.1644 21.3281C18.1644 20.6809 17.6397 20.1562 16.9925 20.1562H5.85937C5.21215 20.1562 4.6875 20.6809 4.6875 21.3281V54.1405C4.6875 54.7877 5.21215 55.3124 5.85937 55.3124H38.6717C39.319 55.3124 39.8436 54.7877 39.8436 54.1405V21.3281C39.8436 20.6809 39.319 20.1562 38.6717 20.1562ZM14.141 31.2671L16.058 33.1842C15.9789 33.1818 15.8996 33.1802 15.8202 33.1802C12.9959 33.1802 10.3622 34.7003 8.94643 37.1475C8.73643 37.5106 8.73643 37.9581 8.94643 38.3212C10.3622 40.7684 12.9959 42.2885 15.8202 42.2885C15.8996 42.2885 15.9788 42.2869 16.058 42.2846L14.141 44.2016C11.6107 43.7598 8.98662 44.5729 7.15405 46.4053C7.11233 46.447 7.0719 46.4898 7.03124 46.5324V28.9364C7.0719 28.9789 7.11233 29.0217 7.15405 29.0634C8.65873 30.5681 10.6969 31.3859 12.779 31.3859C13.2325 31.3859 13.6883 31.3462 14.141 31.2671ZM15.8202 39.9447C14.0663 39.9447 12.4166 39.1125 11.3662 37.7343C12.4165 36.3561 14.0663 35.5239 15.8202 35.5239C17.574 35.5239 19.2238 36.3561 20.2741 37.7343C19.2238 39.1125 17.5741 39.9447 15.8202 39.9447ZM22.2656 39.7257C23.6438 40.7759 24.4759 42.4258 24.4759 44.1796C24.4759 45.9334 23.6438 47.5833 22.2656 48.6335C20.8873 47.5833 20.0552 45.9334 20.0552 44.1796C20.0551 42.4258 20.8873 40.776 22.2656 39.7257ZM24.2569 37.7343C25.3071 36.3561 26.957 35.5239 28.7108 35.5239C30.4647 35.5239 32.1145 36.3561 33.1648 37.7343C32.1145 39.1125 30.4647 39.9447 28.7108 39.9447C26.957 39.9447 25.3071 39.1125 24.2569 37.7343ZM11.9373 51.1885C10.6972 52.4287 8.94244 53.0072 7.22495 52.775C6.99304 51.0578 7.57124 49.3028 8.81131 48.0627C10.0515 46.8225 11.8072 46.2443 13.5238 46.4762C13.7557 48.1932 13.1775 49.9484 11.9373 51.1885ZM13.5947 52.8458C15.4271 51.0132 16.2401 48.3892 15.7984 45.8589L17.7154 43.9418C17.7131 44.0209 17.7114 44.1001 17.7114 44.1796C17.7114 47.0038 19.2317 49.6377 21.6788 51.0533C21.8603 51.1583 22.0629 51.2108 22.2656 51.2108C22.4682 51.2108 22.6708 51.1583 22.8523 51.0533C25.2994 49.6377 26.8197 47.0038 26.8197 44.1796C26.8197 44.1001 26.818 44.0209 26.8157 43.9418L28.7328 45.8589C28.291 48.3892 29.104 51.0132 30.9365 52.8458C30.9786 52.888 31.0227 52.9276 31.0656 52.9686H13.4654C13.5084 52.9275 13.5525 52.8879 13.5947 52.8458ZM31.0074 46.4761C32.724 46.2441 34.4796 46.8225 35.7197 48.0625C36.9599 49.3027 37.5381 51.0576 37.3062 52.7749C35.5891 53.0071 33.8339 52.4286 32.5938 51.1885C31.3536 49.9484 30.7754 48.1934 31.0074 46.4761ZM37.3769 46.4052C35.5445 44.5729 32.9203 43.7598 30.39 44.2015L28.473 42.2844C28.5521 42.2868 28.6313 42.2884 28.7107 42.2884C31.5349 42.2884 34.1688 40.7682 35.5844 38.3211C35.7944 37.958 35.7944 37.5105 35.5844 37.1474C34.1688 34.7003 31.5349 33.1801 28.7107 33.1801C28.6313 33.1801 28.5521 33.1817 28.473 33.184L30.39 31.267C30.8427 31.3461 31.2983 31.3858 31.7521 31.3858C33.834 31.3858 35.8724 30.5678 37.3771 29.0632C37.4188 29.0214 37.4592 28.9787 37.4999 28.9361V46.5321C37.4592 46.4897 37.4188 46.4469 37.3769 46.4052V46.4052ZM32.5937 24.2801C33.834 23.0399 35.5891 22.462 37.3062 22.6937C37.5381 24.4108 36.9599 26.1658 35.7198 27.406C34.4796 28.6462 32.7244 29.2244 31.0074 28.9925C30.7754 27.2752 31.3536 25.5203 32.5937 24.2801ZM22.2656 26.8351C23.6438 27.8853 24.4759 29.5352 24.4759 31.289C24.4759 33.0428 23.6438 34.6927 22.2656 35.7429C20.8873 34.6927 20.0552 33.0428 20.0552 31.289C20.0551 29.5352 20.8873 27.8853 22.2656 26.8351V26.8351ZM13.5238 28.9925C11.8067 29.2243 10.0515 28.6461 8.81143 27.4061C7.57124 26.166 6.99304 24.411 7.22495 22.6938C8.94233 22.4621 10.6973 23.0401 11.9373 24.2802C13.1775 25.5203 13.7557 27.2752 13.5238 28.9925Z" fill="black"/>
<path d="M56.4844 0H18.9845C17.046 0 15.4689 1.5771 15.4689 3.51561V15.4688H3.51561C1.5771 15.4688 0 17.0459 0 18.9844V56.4843C0 58.4228 1.5771 59.9999 3.51561 59.9999H41.0155C42.954 59.9999 44.5311 58.4228 44.5311 56.4843V44.5311H56.4841C58.4227 44.5311 59.9998 42.954 59.9998 41.0155V3.51561C60 1.5771 58.4229 0 56.4844 0ZM42.1874 56.4844C42.1874 57.1306 41.6617 57.6563 41.0156 57.6563H3.51561C2.86944 57.6563 2.34374 57.1306 2.34374 56.4844V18.9845C2.34374 18.3384 2.86944 17.8127 3.51561 17.8127H41.0155C41.6616 17.8127 42.1873 18.3384 42.1873 18.9845V56.4844H42.1874ZM22.6939 7.22493C24.4102 6.9929 26.166 7.57122 27.4062 8.81141C28.6464 10.0516 29.2246 11.8066 28.9927 13.5237C27.2756 13.7551 25.5204 13.1773 24.2802 11.9371C23.0401 10.6972 22.4619 8.94219 22.6939 7.22493ZM35.5359 15.4688C35.6389 13.8478 36.4487 12.3461 37.7345 11.3663C39.0202 12.3461 39.83 13.8478 39.933 15.4688H35.5359ZM48.6337 22.2655C47.6539 23.5513 46.1522 24.3611 44.5312 24.4641V20.067C46.1522 20.17 47.6539 20.9798 48.6337 22.2655ZM52.7751 37.3063C51.0584 37.5382 49.3028 36.9599 48.0627 35.7198C46.8225 34.4796 46.2443 32.7246 46.4763 31.0075C48.1936 30.7758 49.9486 31.3539 51.1887 32.5939C52.4288 33.834 53.007 35.589 52.7751 37.3063ZM44.5312 34.3865C44.9187 35.4956 45.5509 36.5226 46.4055 37.3772C46.4477 37.4193 46.4917 37.459 46.5347 37.5H44.5313V34.3865H44.5312ZM52.9688 31.0637C52.9281 31.0212 52.8877 30.9784 52.846 30.9367C51.0135 29.1041 48.3892 28.2913 45.859 28.733L44.5312 27.4051V26.811C47.221 26.6908 49.6968 25.1978 51.0536 22.8525C51.2636 22.4895 51.2636 22.0419 51.0536 21.6789C49.6568 19.2644 47.0738 17.7534 44.2925 17.7135C44.2603 17.6309 44.2258 17.5493 44.1877 17.4699L45.859 15.7986C46.3117 15.8777 46.7674 15.9174 47.2212 15.9174C49.3029 15.9174 51.3416 15.0993 52.8461 13.5948C52.8878 13.553 52.9283 13.5103 52.969 13.4676V31.0637H52.9688ZM52.7751 7.22493C53.007 8.94219 52.4288 10.6971 51.1886 11.9373C49.9484 13.1774 48.1932 13.7558 46.4763 13.5237C46.2443 11.8066 46.8225 10.0516 48.0627 8.81141C49.3029 7.57122 51.0584 6.99314 52.7751 7.22493ZM46.4054 7.15415C44.5729 8.9866 43.7599 11.6108 44.2017 14.1411L42.5302 15.8125C42.4508 15.7744 42.3692 15.7399 42.2866 15.7077C42.2467 12.9263 40.7357 10.3434 38.3212 8.94664C37.9582 8.73664 37.5106 8.73664 37.1476 8.94664C34.8023 10.3033 33.3094 12.7792 33.1891 15.4689H32.5951L31.2673 14.1411C31.7091 11.6108 30.8959 8.98672 29.0636 7.15415C29.0218 7.11243 28.9791 7.072 28.9365 7.03134H46.5325C46.4899 7.072 46.4472 7.11243 46.4054 7.15415V7.15415ZM22.5001 13.4675C22.5408 13.51 22.5812 13.5528 22.623 13.5945C23.4774 14.4489 24.5042 15.0813 25.613 15.4688H22.5001V13.4675ZM57.6563 41.0155C57.6563 41.6616 57.1306 42.1873 56.4844 42.1873H44.5313V39.8436H54.1408C54.788 39.8436 55.3126 39.3189 55.3126 38.6717V5.85935C55.3126 5.21213 54.788 4.68748 54.1408 4.68748H21.3284C20.6812 4.68748 20.1565 5.21213 20.1565 5.85935V15.4688H17.8128V3.51561C17.8128 2.86944 18.3385 2.34374 18.9847 2.34374H56.4845C57.1307 2.34374 57.6564 2.86944 57.6564 3.51561V41.0155H57.6563Z" fill="black"/>
<path d="M22.2665 22.5C22.9137 22.5 23.4383 21.9754 23.4383 21.3281C23.4383 20.6809 22.9137 20.1562 22.2665 20.1562H22.2656C21.6184 20.1562 21.0942 20.6809 21.0942 21.3281C21.0942 21.9754 21.6192 22.5 22.2665 22.5V22.5Z" fill="black"/>
</g>
<defs>
<clipPath id="clip0_491_4005">
<rect width="60" height="60" fill="white"/>
</clipPath>
</defs>
</svg>
