<svg width="35" height="35" viewBox="0 0 35 35" fill="none" xmlns="http://www.w3.org/2000/svg">
<path d="M25.1562 0C20.9345 0 17.5 3.43451 17.5 7.65625V15.3125H4.375C3.16695 15.3125 2.1875 16.292 2.1875 17.5V32.8125C2.1875 34.0205 3.16695 35 4.375 35H24.0625C25.2705 35 26.25 34.0205 26.25 32.8125V17.5C26.25 16.292 25.2705 15.3125 24.0625 15.3125H21.875V7.65625C21.875 5.84685 23.3468 4.375 25.1562 4.375C26.9657 4.375 28.4375 5.84685 28.4375 7.65625V13.125C28.4375 14.333 29.417 15.3125 30.625 15.3125C31.833 15.3125 32.8125 14.333 32.8125 13.125V7.65625C32.8125 3.43451 29.378 0 25.1562 0ZM15.3125 27.143V29.5312C15.3125 30.1353 14.8228 30.625 14.2188 30.625C13.6147 30.625 13.125 30.1353 13.125 29.5312V27.1429C11.8534 26.6909 10.9375 25.489 10.9375 24.0624C10.9375 22.2501 12.4064 20.7812 14.2188 20.7812C16.0311 20.7812 17.5 22.2501 17.5 24.0624C17.5 25.489 16.5841 26.6908 15.3125 27.143Z" fill="white"/>
</svg>
